<svg xmlns="http://www.w3.org/2000/svg" viewBox="0 0 100 100" fill="none">
  <defs>
    <linearGradient id="gradPrimary" x1="0%" y1="0%" x2="100%" y2="100%">
      <stop offset="0%" stop-color="#7F5AF0" />
      <stop offset="100%" stop-color="#42D8C5" />
    </linearGradient>
    <filter id="glow" x="-20%" y="-20%" width="140%" height="140%">
      <feGaussianBlur stdDeviation="4" result="blur" />
      <feComposite in="SourceGraphic" in2="blur" operator="over" />
    </filter>
  </defs>
  <rect width="100" height="100" rx="24" fill="#0F172A" />
  <path d="M30 35C30 28.5 35.5 24 43 24C48 24 50 26.5 50 28C50 26.5 52 24 57 24C64.5 24 70 28.5 70 35V68C70 72 66 75 61 75C55 75 51 72 50 70C49 72 45 75 39 75C34 75 30 72 30 68V35Z" fill="url(#gradPrimary)" filter="url(#glow)"/>
  <path d="M50 28V70" stroke="#0F172A" stroke-width="4" stroke-linecap="round"/>
  <circle cx="40" cy="45" r="4" fill="#0F172A"/>
  <circle cx="60" cy="45" r="4" fill="#0F172A"/>
  <path d="M36 56C38 60 42 60 44 56" stroke="#0F172A" stroke-width="3" stroke-linecap="round"/>
  <path d="M56 56C58 60 62 60 64 56" stroke="#0F172A" stroke-width="3" stroke-linecap="round"/>
</svg>
